<svg width="50" height="50" viewBox="0 0 36 36" fill="none"
    xmlns="http://www.w3.org/2000/svg">
    <path d="M30.047 28.1131C29.128 29.0885 28.0899 29.9449 26.9326 30.6822C25.7867 31.4082 24.5841 32.015 23.3247 32.5027C22.0767 33.0018 20.806 33.3761 19.5126 33.6257C18.2192 33.8752 16.9655 34 15.7515 34C14.4128 34 13.1534 33.8412 11.9735 33.5236C10.7935 33.2173 9.76106 32.7466 8.87611 32.1114C7.99115 31.4649 7.28772 30.6539 6.76583 29.6784C6.25528 28.6915 6 27.5232 6 26.1734C6 25.0278 6.20422 23.9276 6.61266 22.8727C7.03245 21.8178 7.67347 20.882 8.53574 20.0653C9.40935 19.2486 10.5212 18.5907 11.8713 18.0917C13.2328 17.5926 14.8609 17.3203 16.7556 17.275C15.5076 17.275 14.4184 17.0992 13.4881 16.7475C12.5577 16.3846 11.7862 15.9025 11.1736 15.3013C10.5609 14.6888 10.1014 13.9799 9.7951 13.1745C9.48877 12.3578 9.3356 11.4958 9.3356 10.5884C9.3356 9.73765 9.4831 8.96067 9.77808 8.25741C10.0731 7.55415 10.4758 6.92462 10.9864 6.36883C11.5083 5.80168 12.1209 5.30827 12.8244 4.88858C13.5278 4.4689 14.288 4.12294 15.1048 3.85071C15.9331 3.56714 16.7953 3.3573 17.6916 3.22119C18.5993 3.07373 19.5126 3 20.4316 3C21.759 3 23.0581 3.14746 24.3288 3.44237C25.5995 3.72594 26.7284 4.15697 27.7155 4.73546C28.7025 5.31394 29.4967 6.03988 30.098 6.91328C30.6993 7.77534 31 8.78485 31 9.94182C31 10.3502 30.8582 10.7528 30.5745 11.1498C30.3022 11.5468 29.9732 11.9041 29.5875 12.2217C29.2017 12.528 28.7933 12.7775 28.3622 12.9704C27.9424 13.1518 27.5907 13.2426 27.307 13.2426C27.0688 13.2426 26.9496 13.0327 26.9496 12.6131C26.9496 12.2387 27.0064 11.7567 27.1198 11.1668C27.2446 10.577 27.4488 9.83974 27.7325 8.95499C27.4261 8.70545 26.978 8.45591 26.388 8.20637C25.798 7.95682 25.1287 7.72997 24.3799 7.5258C23.6424 7.32162 22.8539 7.15715 22.0143 7.03238C21.1747 6.89627 20.3465 6.82821 19.5296 6.82821C18.7695 6.82821 18.0433 6.89627 17.3513 7.03238C16.6592 7.1685 16.0465 7.39535 15.5133 7.71295C14.9914 8.01921 14.5716 8.42755 14.2539 8.93798C13.9476 9.44841 13.7944 10.0779 13.7944 10.8266C13.7944 11.4391 13.9022 11.9552 14.1178 12.3749C14.3447 12.7945 14.6397 13.1518 15.0027 13.4468C15.3771 13.7417 15.8026 13.9855 16.2791 14.1784C16.7556 14.3599 17.2491 14.5243 17.7597 14.6718C18.2703 14.8192 18.7695 14.961 19.2573 15.0971C19.7565 15.2333 20.2103 15.3921 20.6188 15.5735C21.0386 15.7437 21.3903 15.9535 21.6739 16.2031C21.9576 16.4526 22.1448 16.7645 22.2355 17.1389C22.2582 17.3771 22.2809 17.6209 22.3036 17.8705C22.3263 18.1087 22.3376 18.3412 22.3376 18.5681C22.3376 19.2033 22.2185 19.6683 21.9803 19.9632C21.742 20.2468 21.2768 20.3886 20.5848 20.3886C20.2898 20.3886 19.921 20.3716 19.4786 20.3375C19.0474 20.3035 18.6333 20.2865 18.2362 20.2865C17.3286 20.2865 16.4379 20.4056 15.5643 20.6438C14.6907 20.8707 13.9079 21.2166 13.2158 21.6817C12.5237 22.1354 11.9621 22.7025 11.531 23.3831C11.1112 24.0523 10.9013 24.835 10.9013 25.7311C10.9013 26.5818 11.0204 27.2907 11.2587 27.8578C11.5083 28.425 11.843 28.8844 12.2628 29.236C12.6939 29.5763 13.1988 29.8202 13.7774 29.9676C14.356 30.1151 14.98 30.1888 15.6494 30.1888C16.455 30.1888 17.3002 30.1094 18.1852 29.9506C19.0701 29.7918 19.9494 29.5763 20.823 29.3041C21.708 29.0205 22.5646 28.6915 23.3928 28.3172C24.2324 27.9316 25.0095 27.5232 25.7243 27.0922C26.4391 26.6498 27.0688 26.1905 27.6133 25.7141C28.1579 25.2263 28.5777 24.7386 28.8727 24.2508L30.047 28.1131Z" fill="black"/>
    <style>
    @media (prefers-color-scheme:dark){:root{filter:invert(100%)}}
    </style>
</svg>
